<?xml version="1.0" encoding="UTF-8" standalone="no"?>
<!-- Created with Inkscape (http://www.inkscape.org/) -->

<svg
   version="1.1"
   id="svg2"
   width="6666.6665"
   height="3752.3201"
   viewBox="0 0 6666.6665 3752.3201"
   sodipodi:docname="gel7.eps"
   xmlns:inkscape="http://www.inkscape.org/namespaces/inkscape"
   xmlns:sodipodi="http://sodipodi.sourceforge.net/DTD/sodipodi-0.dtd"
   xmlns="http://www.w3.org/2000/svg"
   xmlns:svg="http://www.w3.org/2000/svg">
  <defs
     id="defs6" />
  <sodipodi:namedview
     id="namedview4"
     pagecolor="#ffffff"
     bordercolor="#000000"
     borderopacity="0.25"
     inkscape:showpageshadow="2"
     inkscape:pageopacity="0.0"
     inkscape:pagecheckerboard="0"
     inkscape:deskcolor="#d1d1d1" />
  <g
     id="g8"
     inkscape:groupmode="layer"
     inkscape:label="ink_ext_XXXXXX"
     transform="matrix(1.3333333,0,0,-1.3333333,0,3752.32)">
    <g
       id="g10"
       transform="scale(0.1)">
      <path
         d="M 0,28142.4 H 50000 V 0 H 0 v 28142.4"
         style="fill:#ffffff;fill-opacity:1;fill-rule:evenodd;stroke:none"
         id="path12" />
      <path
         d="M 10563.5,933.699 C 25517.6,15495 33183,15591.8 38739.1,11048.8 c 2465.6,-2016 4515.6,-4945.2 6603.3,-7928.3 510.8,-729.9 1024,-1463 1545.9,-2186.801 h -16.8 C 46351.3,1655.1 45840,2385.7 45330.9,3113.1 43243.7,6095.4 41194.3,9023.8 38730.2,11038.7 33180.7,15576.3 25523,15478.6 10582.9,933.699 Z M 50000,15292 v -15.8 C 43381.1,19424.4 33040,23981.9 23218.6,26055.3 17656.5,27229.5 12261.4,27606.9 7804.43,26661.9 4636.7,25990.3 1943.13,24650.3 0,22453.6 v 20.7 c 1944.32,2191.9 4636.51,3529.7 7801.51,4200.7 4459.09,945.4 9856.09,567.9 15419.99,-606.6 9819.2,-2073 20157.9,-6628.5 26778.5,-10776.4 z m 0,-884.5 v -16.1 c -6226.9,3978 -15620.7,8395.8 -24778.5,10650.5 -5681.7,1398.8 -11272.2,1965 -15958.28,1076.6 C 5415.54,25389 2177.88,23678.5 0,20643.2 v 23.5 c 2179.91,3028.5 5416.03,4736 9260.59,5464.9 4688.21,888.8 10280.81,322.6 15964.41,-1076.8 9155.4,-2254.1 18546.9,-6670 24775,-10647.3 z m 0,-884 v -16 C 44160.9,17311.8 35655.1,21574.9 27170.5,23977.4 21393.8,25613.1 15627.2,26386.2 10719.7,25564.6 6193.92,24806.8 2398.75,22692.5 0,18647.2 v 26.8 c 2401.63,4036 6195.1,6146.6 10717.4,6903.7 4909.8,822.1 10678.4,48.7 16457,-1587.5 8482.3,-2401.8 16985.7,-6663 22825.6,-10466.7 z m 0,-882.9 v -16.2 C 44537.3,16256.1 36849.8,20355.9 29031,22871 23188.7,24750.3 17273.4,25744.8 12158.7,24997.9 7045.15,24251.2 2731.89,21763.6 92.4414,16678.9 61.3672,16619.1 30.6406,16558.7 0,16498.2 v 30.4 c 26.5391,52.3 53.1992,104.5 80.082,156.3 2641.778,5089.2 6958.728,7578.9 12076.618,8326.2 5116.9,747.2 11034.4,-247.6 16878.6,-2127.5 7816.5,-2514.3 15501.6,-6612 20964.7,-10243 z m 0,-882.2 v -16.3 c -7517.1,5102.4 -19028.5,11224.7 -29390.3,12582.3 -3554.1,465.7 -6972.9,370.8 -10048.6,-518.2 C 7485.83,22917.4 4753.39,21234.5 2571.51,18524.2 1598.79,17315.9 735.543,15903.2 0,14265.8 v 33.8 c 733.203,1626.4 1592.8,3030.6 2560.62,4232.8 2183.73,2712.6 4918.54,4397 7996.58,5286.7 3077.6,889.5 6498.3,984.5 10054.3,518.6 10360.7,-1357.6 21869.9,-7477 29388.5,-12579.3 z m 0,-881.1 v -16.5 c -7048.7,4887.9 -17405.4,10796.5 -27116.4,12566.7 -3786.1,690.1 -7473.9,751.1 -10828.9,-123 C 8699.99,22430.6 5677.96,20621.7 3222.95,17572.2 1997.7,16050.2 913.734,14218.9 0,12040.7 v 35.5 c 911.52,2165.9 1991.71,3988.3 3212.03,5504.2 2456.98,3052 5481.59,4862.4 8839.07,5737 3357.1,874.6 7047,813.6 10835,123.2 9709.7,-1769.9 20064.2,-7675.7 27113.9,-12563.3 z m 0,-879.9 v -16.6 C 43062.9,14898.3 33131.5,20932 23669.2,22757.9 14108,24602.9 5026.57,22150 0,9905 v 35.7 C 5032,22166.7 14112.2,24615.8 23672,22771 33132.9,20945.3 43062.1,14914.6 50000,9997.4 Z m 0,-878.8 v -16.7 C 43193.2,14037.8 33718.1,20178.7 24524.6,22075.8 14921.1,24057.4 5625.46,21405.1 0,7909.6 v 35.5 C 5629.87,21422 14924.7,24070.3 24527.4,22088.8 33719.9,20192 43192.7,14054.2 50000,9118.6 Z m 0,-877.5 v -16.9 c -5880.3,4365 -13581.3,9733 -21433.6,12294.4 C 17945.1,23983.1 7046.63,22309.1 0,6071.6 V 6106 C 7050.69,22325.2 17949.2,23995.9 28570.7,20531.3 36421.5,17970.4 44120,12605.5 50000,8241.1 Z m 0,-876.4 v -17 C 44424.8,11587.4 37377.2,16828.4 30056.4,19545.3 19379.2,23508.1 8120.4,22098.7 0,4382.5 v 32.6 C 8123.53,22114.5 19382.9,23521 30061.4,19557.8 37380.4,16841.4 44425.5,11603.8 50000,7364.7 Z m 0,-874.9 v -17.2 c -172.7,134.7 -346.7,270.5 -522,407.2 C 44266.6,10946 37978.4,15852.3 31356,18598.5 20746,22998.4 9276.98,21849.9 0,2818.5 v 31.3 c 9279.19,19016.1 20749.5,20161.7 31361.5,15761 6624.1,-2747 12913,-7653.9 18125.2,-11720.6 172.3,-134.4 343.4,-267.9 513.3,-400.4 z m 0,-873.4 V 5599 c -504.6,403.8 -1018.3,817.5 -1540.6,1238.2 -4741.2,3819 -10190.2,8208.1 -15978.1,10852.6 C 22037.7,22461.7 10489.3,21550.4 0,1361 v 29.9 c 10490.8,20175.8 22041.1,21084 32487.2,16311 5789.5,-2645.4 11239.2,-7035 15981.1,-10854.5 519.2,-418.2 1030,-829.5 1531.7,-1231 z m 0,-871.8 v -17.5 c -768.3,631.4 -1553.8,1288.4 -2355.6,1959 -4307,3602.3 -9084.2,7597.9 -14192.3,10141.1 C 23406.8,21828.5 12080.4,21210.2 530.52,933.699 H 514.711 C 12071,21225.7 23405.6,21844.1 33458.5,16839 c 5109.4,-2543.8 9887.3,-6540 14194.9,-10142.8 798.7,-668 1581.1,-1322.4 2346.6,-1951.6 z m 0,-870 v -17.7 c -981.1,829 -1983.4,1703.8 -3007.1,2597.2 -3919,3420.3 -8151.1,7113.9 -12702.8,9561 C 24743.4,21147.5 13788.9,20795.5 1363.74,933.699 h -16.1 C 13780.2,20811.2 24742.7,21163.2 34296.8,16026.7 38849.8,13578.9 43082.6,9884.8 47002.1,6464 48022.6,5573.4 49021.8,4701.3 50000,3874.6 Z m 0,-868.1 v -18 c -1154,1003.8 -2327.3,2077 -3523.6,3171.3 -3578.2,3273 -7363.3,6735.2 -11458.6,9094.9 -9030.3,5203.2 -19572.2,5044 -32740.68,-14321.001 h -16.49 C 15437.3,20314.6 25987.3,20473.6 35024.9,15266.2 39121.6,12905.6 42907.2,9442.9 46485.9,6169.4 47679,5078.1 48849,4007.9 50000,3006.5 Z m 0,-866 v -18.2 c -1294.6,1160.5 -2599.5,2416.6 -3926.2,3693.6 -3281.3,3158.7 -6695.7,6445.5 -10416,8728.6 C 27152.3,19764.1 17044.7,19733.7 3264.73,933.699 H 3247.8 C 17036.9,19749.8 27152.5,19779.8 35665.2,14555.8 39386.7,12272 42801.7,8984.6 46083.6,5825.4 47406.9,4551.5 48708.6,3298.5 50000,2140.5 Z m 0,-863.6 v -18.5 C 48591.7,2561 47189.1,3987.5 45768.8,5432.2 42746,8506.7 39642.6,11663.3 36231.8,13880.6 28251.6,19068.3 18585,19110.8 4323.26,933.699 h -17.32 C 18577.6,19127.1 28252.2,19084 36239.5,13891.6 39651.7,11673.5 42755.6,8516.4 45778.8,5441.4 47195.8,4000.1 48595.1,2576.9 50000,1276.9 Z m -534,-343.201 h -19.3 C 48138.1,2221.1 46847.8,3613.3 45548.4,5015.5 42752.5,8032.4 39914,11095.3 36760,13257.3 29298.7,18371.8 20068,18440.6 5449.68,933.699 h -17.72 C 20061.1,18456.9 29299.6,18387.5 36768,13268.1 39923.1,11105.4 42762.2,8041.9 45558.7,5024.4 46861.1,3618.9 48154.4,2223.5 49466,933.699 Z m -802.2,0 h -18.7 C 47551.5,2100.8 46478,3334.7 45402.2,4571.4 42807.7,7553.8 40199,10552.5 37260.2,12668.1 30305.6,17674.6 21497.7,17733.2 6641.38,933.699 h -18.26 C 21491.2,17749.7 30306.8,17690.4 37268.4,12678.8 40208.5,10562.3 42817.7,7563.1 45412.9,4580 46491.3,3340.3 47567.4,2103.3 48663.8,933.699 Z m -696.3,0 h -18 C 47061.3,1964.6 46191.1,3035 45321.8,4104.1 42909.1,7071.6 40504.1,10029.5 37747.5,12106.3 31282.6,16976.7 22879.3,16998.3 7895.63,933.699 h -18.55 C 22873.2,17014.7 31284.3,16992.3 37756,12116.7 c 2758.1,-2077.8 5163.5,-5036.3 7576.7,-8004.3 871.6,-1072 1744.2,-2145.3 2634.8,-3178.701 z m -591.3,0 h -17.4 C 46662.8,1815.3 45980.3,2717.7 45300,3617.1 43055,6585.5 40834.7,9521.4 38234.3,11565.1 32238.7,16277.4 24218.9,16244.3 9210.22,933.699 h -18.97 C 24213.1,16260.7 32240.7,16292.9 38243,11575.4 40844.7,9530.7 43065.7,6594.1 45311.2,3625 45993.4,2722.8 46678,1817.7 47376.2,933.699"
         style="fill:#000000;fill-opacity:1;fill-rule:nonzero;stroke:none"
         id="path14" />
    </g>
  </g>
</svg>
